<?xml version="1.0" encoding="utf-8"?>
<!-- Generator: Adobe Illustrator 18.1.1, SVG Export Plug-In . SVG Version: 6.00 Build 0)  -->
<!DOCTYPE svg PUBLIC "-//W3C//DTD SVG 1.1//EN" "http://www.w3.org/Graphics/SVG/1.1/DTD/svg11.dtd">
<svg version="1.1" id="Layer_1" xmlns="http://www.w3.org/2000/svg" xmlns:xlink="http://www.w3.org/1999/xlink" x="0px" y="0px"
	 viewBox="0 0 47.9 72.1" enable-background="new 0 0 47.9 72.1" xml:space="preserve">
<g>
	<path d="M30.5,3.8c0.4,0,2.2,0.1,0.9,1.7c-2,2.4-2,2.2-2,2.9c0,0.7,0,12.5,0,12.5L43.1,59c0,0,4.4,9.3-5.2,9.3c-9.6,0-14,0-14,0
		s-4.3,0-14,0c-9.6,0-5.2-9.3-5.2-9.3l13.8-38.1c0,0,0-11.8,0-12.5c0-0.7,0-0.5-2-2.9c-1.4-1.6,0.4-1.7,0.9-1.7c0.1,0,0.1,0,0.1,0
		h6.5L30.5,3.8C30.4,3.8,30.5,3.8,30.5,3.8 M30.5,0c-0.1,0-0.1,0-0.1,0h-6.4h-6.4c0,0-0.1,0-0.1,0c-2.2,0-3.9,1-4.7,2.6
		c-0.4,0.8-1,2.9,1,5.2c0.5,0.6,0.9,1,1.2,1.4v11L1.3,57.6c-0.5,1.2-2.6,6.4,0,10.5c1.1,1.8,3.6,4,8.7,4h14h14c5.1,0,7.5-2.2,8.7-4
		c2.6-4.1,0.5-9.3,0-10.5L33.1,20.2v-11c0.3-0.3,0.7-0.8,1.2-1.4c2-2.4,1.3-4.4,1-5.2C34.4,1,32.7,0,30.5,0L30.5,0z"/>
	<path d="M39.8,58.4l-7.2-19.3h-0.3c0,0.6-3.7,1.1-8.4,1.1c-4.6,0-8.4-0.5-8.4-1.1L8.3,58.4c0,0-3.7,6.7,3.6,6.7
		c7.3,0,12.1,0,12.1,0s4.8,0,12.1,0C43.5,65.1,39.8,58.4,39.8,58.4z"/>
	<circle cx="20.4" cy="33.6" r="2.8"/>
	<circle cx="29.1" cy="36.8" r="1.3"/>
	<circle cx="29.8" cy="33.8" r="0.7"/>
	<circle cx="24.2" cy="27.4" r="1.6"/>
	<circle cx="25.7" cy="21.6" r="1.5"/>
	<circle cx="23" cy="17.9" r="1.3"/>
	<circle cx="25.2" cy="12.9" r="0.9"/>
</g>
</svg>
